# SVAMITVA 3D CADASTRE V-CAD EXPORT
# Parent 2D ULPIN: 12345678901234
# Total Spatial Geometries: 10

o Land_Parcel_Base_landscape_base
v -12.000 -0.100 -9.000
v 12.000 -0.100 -9.000
v 12.000 0.000 -9.000
v -12.000 0.000 -9.000
v -12.000 -0.100 9.000
v 12.000 -0.100 9.000
v 12.000 0.000 9.000
v -12.000 0.000 9.000
f 1 2 3 4
f 5 8 7 6
f 1 5 6 2
f 4 3 7 8
f 1 4 8 5
f 2 6 7 3

o Ground_Floor_Slab_slab_F01
v -6.200 -0.080 -4.200
v 6.200 -0.080 -4.200
v 6.200 0.080 -4.200
v -6.200 0.080 -4.200
v -6.200 -0.080 4.200
v 6.200 -0.080 4.200
v 6.200 0.080 4.200
v -6.200 0.080 4.200
f 9 10 11 12
f 13 16 15 14
f 9 13 14 10
f 12 11 15 16
f 9 12 16 13
f 10 14 15 11

o Rooftop_Terrace_Slab_slab_R00
v -6.200 2.720 -4.200
v 6.200 2.720 -4.200
v 6.200 2.880 -4.200
v -6.200 2.880 -4.200
v -6.200 2.720 4.200
v 6.200 2.720 4.200
v 6.200 2.880 4.200
v -6.200 2.880 4.200
f 17 18 19 20
f 21 24 23 22
f 17 21 22 18
f 20 19 23 24
f 17 20 24 21
f 18 22 23 19

o Flat_101_room_F01_flat_101
v -2.920 0.010 -1.920
v 2.920 0.010 -1.920
v 2.920 0.150 -1.920
v -2.920 0.150 -1.920
v -2.920 0.010 1.920
v 2.920 0.010 1.920
v 2.920 0.150 1.920
v -2.920 0.150 1.920
f 25 26 27 28
f 29 32 31 30
f 25 29 30 26
f 28 27 31 32
f 25 28 32 29
f 26 30 31 27

o Flat_102_room_F01_flat_102
v -2.920 0.010 -1.920
v 2.920 0.010 -1.920
v 2.920 0.150 -1.920
v -2.920 0.150 -1.920
v -2.920 0.010 1.920
v 2.920 0.010 1.920
v 2.920 0.150 1.920
v -2.920 0.150 1.920
f 33 34 35 36
f 37 40 39 38
f 33 37 38 34
f 36 35 39 40
f 33 36 40 37
f 34 38 39 35

o Flat_201_room_F01_flat_201
v -2.920 0.010 -1.920
v 2.920 0.010 -1.920
v 2.920 0.150 -1.920
v -2.920 0.150 -1.920
v -2.920 0.010 1.920
v 2.920 0.010 1.920
v 2.920 0.150 1.920
v -2.920 0.150 1.920
f 41 42 43 44
f 45 48 47 46
f 41 45 46 42
f 44 43 47 48
f 41 44 48 45
f 42 46 47 43

o Flat_202_room_F01_flat_202
v -2.920 0.010 -1.920
v 2.920 0.010 -1.920
v 2.920 0.150 -1.920
v -2.920 0.150 -1.920
v -2.920 0.010 1.920
v 2.920 0.010 1.920
v 2.920 0.150 1.920
v -2.920 0.150 1.920
f 49 50 51 52
f 53 56 55 54
f 49 53 54 50
f 52 51 55 56
f 49 52 56 53
f 50 54 55 51

o Flat_301_room_F01_flat_301
v -2.920 0.010 -1.920
v 2.920 0.010 -1.920
v 2.920 0.150 -1.920
v -2.920 0.150 -1.920
v -2.920 0.010 1.920
v 2.920 0.010 1.920
v 2.920 0.150 1.920
v -2.920 0.150 1.920
f 57 58 59 60
f 61 64 63 62
f 57 61 62 58
f 60 59 63 64
f 57 60 64 61
f 58 62 63 59

o Flat_302_room_F01_flat_302
v -2.920 0.010 -1.920
v 2.920 0.010 -1.920
v 2.920 0.150 -1.920
v -2.920 0.150 -1.920
v -2.920 0.010 1.920
v 2.920 0.010 1.920
v 2.920 0.150 1.920
v -2.920 0.150 1.920
f 65 66 67 68
f 69 72 71 70
f 65 69 70 66
f 68 67 71 72
f 65 68 72 69
f 66 70 71 67

o Rooftop_Terrace_T1_terrace_1
v -5.800 2.800 -3.800
v 5.800 2.800 -3.800
v 5.800 5.300 -3.800
v -5.800 5.300 -3.800
v -5.800 2.800 3.800
v 5.800 2.800 3.800
v 5.800 5.300 3.800
v -5.800 5.300 3.800
f 73 74 75 76
f 77 80 79 78
f 73 77 78 74
f 76 75 79 80
f 73 76 80 77
f 74 78 79 75
