# SVAMITVA 3D CADASTRE V-CAD EXPORT
# Parent 2D ULPIN: 12345678901234
# Total Spatial Geometries: 45

o Land_Parcel_Base_landscape_base
v -12.000 -0.100 -8.950
v 12.000 -0.100 -8.950
v 12.000 0.000 -8.950
v -12.000 0.000 -8.950
v -12.000 -0.100 8.950
v 12.000 -0.100 8.950
v 12.000 0.000 8.950
v -12.000 0.000 8.950
f 1 2 3 4
f 5 8 7 6
f 1 5 6 2
f 4 3 7 8
f 1 4 8 5
f 2 6 7 3

o Floor_1_Slab_slab_F01
v -6.200 -0.080 -4.150
v 6.200 -0.080 -4.150
v 6.200 0.080 -4.150
v -6.200 0.080 -4.150
v -6.200 -0.080 4.150
v 6.200 -0.080 4.150
v 6.200 0.080 4.150
v -6.200 0.080 4.150
f 9 10 11 12
f 13 16 15 14
f 9 13 14 10
f 12 11 15 16
f 9 12 16 13
f 10 14 15 11

o Floor_2_Slab_slab_F02
v -6.200 2.720 -4.150
v 6.200 2.720 -4.150
v 6.200 2.880 -4.150
v -6.200 2.880 -4.150
v -6.200 2.720 4.150
v 6.200 2.720 4.150
v 6.200 2.880 4.150
v -6.200 2.880 4.150
f 17 18 19 20
f 21 24 23 22
f 17 21 22 18
f 20 19 23 24
f 17 20 24 21
f 18 22 23 19

o Floor_3_Slab_slab_F03
v -6.200 5.520 -4.150
v 6.200 5.520 -4.150
v 6.200 5.680 -4.150
v -6.200 5.680 -4.150
v -6.200 5.520 4.150
v 6.200 5.520 4.150
v 6.200 5.680 4.150
v -6.200 5.680 4.150
f 25 26 27 28
f 29 32 31 30
f 25 29 30 26
f 28 27 31 32
f 25 28 32 29
f 26 30 31 27

o Rooftop_Terrace_Slab_slab_R00
v -6.200 8.320 -4.150
v 6.200 8.320 -4.150
v 6.200 8.480 -4.150
v -6.200 8.480 -4.150
v -6.200 8.320 4.150
v 6.200 8.320 4.150
v 6.200 8.480 4.150
v -6.200 8.480 4.150
f 33 34 35 36
f 37 40 39 38
f 33 37 38 34
f 36 35 39 40
f 33 36 40 37
f 34 38 39 35

o North_Exterior_Wall_(F01)_wall_F01_ext_wall_north
v -6.000 0.000 -4.060
v 6.000 0.000 -4.060
v 6.000 2.800 -4.060
v -6.000 2.800 -4.060
v -6.000 0.000 -3.840
v 6.000 0.000 -3.840
v 6.000 2.800 -3.840
v -6.000 2.800 -3.840
f 41 42 43 44
f 45 48 47 46
f 41 45 46 42
f 44 43 47 48
f 41 44 48 45
f 42 46 47 43

o South_Exterior_Wall_(F01)_wall_F01_ext_wall_south
v -6.000 0.000 3.840
v 6.000 0.000 3.840
v 6.000 2.800 3.840
v -6.000 2.800 3.840
v -6.000 0.000 4.060
v 6.000 0.000 4.060
v 6.000 2.800 4.060
v -6.000 2.800 4.060
f 49 50 51 52
f 53 56 55 54
f 49 53 54 50
f 52 51 55 56
f 49 52 56 53
f 50 54 55 51

o West_Exterior_Wall_(F01)_wall_F01_ext_wall_west
v -6.110 0.000 -3.950
v -5.890 0.000 -3.950
v -5.890 2.800 -3.950
v -6.110 2.800 -3.950
v -6.110 0.000 3.950
v -5.890 0.000 3.950
v -5.890 2.800 3.950
v -6.110 2.800 3.950
f 57 58 59 60
f 61 64 63 62
f 57 61 62 58
f 60 59 63 64
f 57 60 64 61
f 58 62 63 59

o East_Exterior_Wall_(F01)_wall_F01_ext_wall_east
v 5.890 0.000 -3.950
v 6.110 0.000 -3.950
v 6.110 2.800 -3.950
v 5.890 2.800 -3.950
v 5.890 0.000 3.950
v 6.110 0.000 3.950
v 6.110 2.800 3.950
v 5.890 2.800 3.950
f 65 66 67 68
f 69 72 71 70
f 65 69 70 66
f 68 67 71 72
f 65 68 72 69
f 66 70 71 67

o Partition_Wall_1_(F01)_wall_F01_int_wall_1
v 4.780 0.000 -3.460
v 5.700 0.000 -3.460
v 5.700 2.800 -3.460
v 4.780 2.800 -3.460
v 4.780 0.000 -3.320
v 5.700 0.000 -3.320
v 5.700 2.800 -3.320
v 4.780 2.800 -3.320
f 73 74 75 76
f 77 80 79 78
f 73 77 78 74
f 76 75 79 80
f 73 76 80 77
f 74 78 79 75

o Partition_Wall_2_(F01)_wall_F01_int_wall_2
v -5.685 0.000 -3.460
v -4.775 0.000 -3.460
v -4.775 2.800 -3.460
v -5.685 2.800 -3.460
v -5.685 0.000 -3.320
v -4.775 0.000 -3.320
v -4.775 2.800 -3.320
v -5.685 2.800 -3.320
f 81 82 83 84
f 85 88 87 86
f 81 85 86 82
f 84 83 87 88
f 81 84 88 85
f 82 86 87 83

o Main_Living_&_Lounge_(32.55m²)_(F01)_room_F01_room_1
v -5.795 0.010 -1.935
v 5.795 0.010 -1.935
v 5.795 0.150 -1.935
v -5.795 0.150 -1.935
v -5.795 0.010 0.675
v 5.795 0.010 0.675
v 5.795 0.150 0.675
v -5.795 0.150 0.675
f 89 90 91 92
f 93 96 95 94
f 89 93 94 90
f 92 91 95 96
f 89 92 96 93
f 90 94 95 91

o Master_Bedroom_Suite_(North_Wing_•_11.55m²)_(F01)_room_F01_room_2
v 1.995 0.010 -3.175
v 5.805 0.010 -3.175
v 5.805 0.150 -3.175
v 1.995 0.150 -3.175
v 1.995 0.010 -0.425
v 5.805 0.010 -0.425
v 5.805 0.150 -0.425
v 1.995 0.150 -0.425
f 97 98 99 100
f 101 104 103 102
f 97 101 102 98
f 100 99 103 104
f 97 100 104 101
f 98 102 103 99

o Kitchen_&_Dining_(West_Wing_•_11.52m²)_(F01)_room_F01_room_3
v -5.790 0.010 -3.175
v -1.990 0.010 -3.175
v -1.990 0.150 -3.175
v -5.790 0.150 -3.175
v -5.790 0.010 -0.425
v -1.990 0.010 -0.425
v -1.990 0.150 -0.425
v -5.790 0.150 -0.425
f 105 106 107 108
f 109 112 111 110
f 105 109 110 106
f 108 107 111 112
f 105 108 112 109
f 106 110 111 107

o Bedroom_2_/_Guest_Room_(10.04m²)_(F01)_room_F01_room_4
v 1.995 0.010 0.615
v 5.805 0.010 0.615
v 5.805 0.150 0.615
v 1.995 0.150 0.615
v 1.995 0.010 2.985
v 5.805 0.010 2.985
v 5.805 0.150 2.985
v 1.995 0.150 2.985
f 113 114 115 116
f 117 120 119 118
f 113 117 118 114
f 116 115 119 120
f 113 116 120 117
f 114 118 119 115

o Private_Office_/_Studio_(10.02m²)_(F01)_room_F01_room_5
v -5.790 0.010 0.615
v -1.990 0.010 0.615
v -1.990 0.150 0.615
v -5.790 0.150 0.615
v -5.790 0.010 2.985
v -1.990 0.010 2.985
v -1.990 0.150 2.985
v -5.790 0.150 2.985
f 121 122 123 124
f 125 128 127 126
f 121 125 126 122
f 124 123 127 128
f 121 124 128 125
f 122 126 127 123

o Bathroom_&_Ensuite_(9.16m²)_(F01)_room_F01_room_6
v -1.675 0.010 0.845
v 1.675 0.010 0.845
v 1.675 0.150 0.845
v -1.675 0.150 0.845
v -1.675 0.010 3.295
v 1.675 0.010 3.295
v 1.675 0.150 3.295
v -1.675 0.150 3.295
f 129 130 131 132
f 133 136 135 134
f 129 133 134 130
f 132 131 135 136
f 129 132 136 133
f 130 134 135 131

o Utility_&_Laundry_(2.11m²)_(F01)_room_F01_room_7
v -1.675 0.010 3.490
v 1.675 0.010 3.490
v 1.675 0.150 3.490
v -1.675 0.150 3.490
v -1.675 0.010 3.930
v 1.675 0.010 3.930
v 1.675 0.150 3.930
v -1.675 0.150 3.930
f 137 138 139 140
f 141 144 143 142
f 137 141 142 138
f 140 139 143 144
f 137 140 144 141
f 138 142 143 139

o North_Exterior_Wall_(F02)_wall_F02_ext_wall_north
v -6.000 2.800 -4.060
v 6.000 2.800 -4.060
v 6.000 5.600 -4.060
v -6.000 5.600 -4.060
v -6.000 2.800 -3.840
v 6.000 2.800 -3.840
v 6.000 5.600 -3.840
v -6.000 5.600 -3.840
f 145 146 147 148
f 149 152 151 150
f 145 149 150 146
f 148 147 151 152
f 145 148 152 149
f 146 150 151 147

o South_Exterior_Wall_(F02)_wall_F02_ext_wall_south
v -6.000 2.800 3.840
v 6.000 2.800 3.840
v 6.000 5.600 3.840
v -6.000 5.600 3.840
v -6.000 2.800 4.060
v 6.000 2.800 4.060
v 6.000 5.600 4.060
v -6.000 5.600 4.060
f 153 154 155 156
f 157 160 159 158
f 153 157 158 154
f 156 155 159 160
f 153 156 160 157
f 154 158 159 155

o West_Exterior_Wall_(F02)_wall_F02_ext_wall_west
v -6.110 2.800 -3.950
v -5.890 2.800 -3.950
v -5.890 5.600 -3.950
v -6.110 5.600 -3.950
v -6.110 2.800 3.950
v -5.890 2.800 3.950
v -5.890 5.600 3.950
v -6.110 5.600 3.950
f 161 162 163 164
f 165 168 167 166
f 161 165 166 162
f 164 163 167 168
f 161 164 168 165
f 162 166 167 163

o East_Exterior_Wall_(F02)_wall_F02_ext_wall_east
v 5.890 2.800 -3.950
v 6.110 2.800 -3.950
v 6.110 5.600 -3.950
v 5.890 5.600 -3.950
v 5.890 2.800 3.950
v 6.110 2.800 3.950
v 6.110 5.600 3.950
v 5.890 5.600 3.950
f 169 170 171 172
f 173 176 175 174
f 169 173 174 170
f 172 171 175 176
f 169 172 176 173
f 170 174 175 171

o Partition_Wall_1_(F02)_wall_F02_int_wall_1
v 4.780 2.800 -3.460
v 5.700 2.800 -3.460
v 5.700 5.600 -3.460
v 4.780 5.600 -3.460
v 4.780 2.800 -3.320
v 5.700 2.800 -3.320
v 5.700 5.600 -3.320
v 4.780 5.600 -3.320
f 177 178 179 180
f 181 184 183 182
f 177 181 182 178
f 180 179 183 184
f 177 180 184 181
f 178 182 183 179

o Partition_Wall_2_(F02)_wall_F02_int_wall_2
v -5.685 2.800 -3.460
v -4.775 2.800 -3.460
v -4.775 5.600 -3.460
v -5.685 5.600 -3.460
v -5.685 2.800 -3.320
v -4.775 2.800 -3.320
v -4.775 5.600 -3.320
v -5.685 5.600 -3.320
f 185 186 187 188
f 189 192 191 190
f 185 189 190 186
f 188 187 191 192
f 185 188 192 189
f 186 190 191 187

o Main_Living_&_Lounge_(32.55m²)_(F02)_room_F02_room_1
v -5.795 2.810 -1.935
v 5.795 2.810 -1.935
v 5.795 2.950 -1.935
v -5.795 2.950 -1.935
v -5.795 2.810 0.675
v 5.795 2.810 0.675
v 5.795 2.950 0.675
v -5.795 2.950 0.675
f 193 194 195 196
f 197 200 199 198
f 193 197 198 194
f 196 195 199 200
f 193 196 200 197
f 194 198 199 195

o Master_Bedroom_Suite_(North_Wing_•_11.55m²)_(F02)_room_F02_room_2
v 1.995 2.810 -3.175
v 5.805 2.810 -3.175
v 5.805 2.950 -3.175
v 1.995 2.950 -3.175
v 1.995 2.810 -0.425
v 5.805 2.810 -0.425
v 5.805 2.950 -0.425
v 1.995 2.950 -0.425
f 201 202 203 204
f 205 208 207 206
f 201 205 206 202
f 204 203 207 208
f 201 204 208 205
f 202 206 207 203

o Kitchen_&_Dining_(West_Wing_•_11.52m²)_(F02)_room_F02_room_3
v -5.790 2.810 -3.175
v -1.990 2.810 -3.175
v -1.990 2.950 -3.175
v -5.790 2.950 -3.175
v -5.790 2.810 -0.425
v -1.990 2.810 -0.425
v -1.990 2.950 -0.425
v -5.790 2.950 -0.425
f 209 210 211 212
f 213 216 215 214
f 209 213 214 210
f 212 211 215 216
f 209 212 216 213
f 210 214 215 211

o Bedroom_2_/_Guest_Room_(10.04m²)_(F02)_room_F02_room_4
v 1.995 2.810 0.615
v 5.805 2.810 0.615
v 5.805 2.950 0.615
v 1.995 2.950 0.615
v 1.995 2.810 2.985
v 5.805 2.810 2.985
v 5.805 2.950 2.985
v 1.995 2.950 2.985
f 217 218 219 220
f 221 224 223 222
f 217 221 222 218
f 220 219 223 224
f 217 220 224 221
f 218 222 223 219

o Private_Office_/_Studio_(10.02m²)_(F02)_room_F02_room_5
v -5.790 2.810 0.615
v -1.990 2.810 0.615
v -1.990 2.950 0.615
v -5.790 2.950 0.615
v -5.790 2.810 2.985
v -1.990 2.810 2.985
v -1.990 2.950 2.985
v -5.790 2.950 2.985
f 225 226 227 228
f 229 232 231 230
f 225 229 230 226
f 228 227 231 232
f 225 228 232 229
f 226 230 231 227

o Bathroom_&_Ensuite_(9.16m²)_(F02)_room_F02_room_6
v -1.675 2.810 0.845
v 1.675 2.810 0.845
v 1.675 2.950 0.845
v -1.675 2.950 0.845
v -1.675 2.810 3.295
v 1.675 2.810 3.295
v 1.675 2.950 3.295
v -1.675 2.950 3.295
f 233 234 235 236
f 237 240 239 238
f 233 237 238 234
f 236 235 239 240
f 233 236 240 237
f 234 238 239 235

o Utility_&_Laundry_(2.11m²)_(F02)_room_F02_room_7
v -1.675 2.810 3.490
v 1.675 2.810 3.490
v 1.675 2.950 3.490
v -1.675 2.950 3.490
v -1.675 2.810 3.930
v 1.675 2.810 3.930
v 1.675 2.950 3.930
v -1.675 2.950 3.930
f 241 242 243 244
f 245 248 247 246
f 241 245 246 242
f 244 243 247 248
f 241 244 248 245
f 242 246 247 243

o North_Exterior_Wall_(F03)_wall_F03_ext_wall_north
v -6.000 5.600 -4.060
v 6.000 5.600 -4.060
v 6.000 8.400 -4.060
v -6.000 8.400 -4.060
v -6.000 5.600 -3.840
v 6.000 5.600 -3.840
v 6.000 8.400 -3.840
v -6.000 8.400 -3.840
f 249 250 251 252
f 253 256 255 254
f 249 253 254 250
f 252 251 255 256
f 249 252 256 253
f 250 254 255 251

o South_Exterior_Wall_(F03)_wall_F03_ext_wall_south
v -6.000 5.600 3.840
v 6.000 5.600 3.840
v 6.000 8.400 3.840
v -6.000 8.400 3.840
v -6.000 5.600 4.060
v 6.000 5.600 4.060
v 6.000 8.400 4.060
v -6.000 8.400 4.060
f 257 258 259 260
f 261 264 263 262
f 257 261 262 258
f 260 259 263 264
f 257 260 264 261
f 258 262 263 259

o West_Exterior_Wall_(F03)_wall_F03_ext_wall_west
v -6.110 5.600 -3.950
v -5.890 5.600 -3.950
v -5.890 8.400 -3.950
v -6.110 8.400 -3.950
v -6.110 5.600 3.950
v -5.890 5.600 3.950
v -5.890 8.400 3.950
v -6.110 8.400 3.950
f 265 266 267 268
f 269 272 271 270
f 265 269 270 266
f 268 267 271 272
f 265 268 272 269
f 266 270 271 267

o East_Exterior_Wall_(F03)_wall_F03_ext_wall_east
v 5.890 5.600 -3.950
v 6.110 5.600 -3.950
v 6.110 8.400 -3.950
v 5.890 8.400 -3.950
v 5.890 5.600 3.950
v 6.110 5.600 3.950
v 6.110 8.400 3.950
v 5.890 8.400 3.950
f 273 274 275 276
f 277 280 279 278
f 273 277 278 274
f 276 275 279 280
f 273 276 280 277
f 274 278 279 275

o Partition_Wall_1_(F03)_wall_F03_int_wall_1
v 4.780 5.600 -3.460
v 5.700 5.600 -3.460
v 5.700 8.400 -3.460
v 4.780 8.400 -3.460
v 4.780 5.600 -3.320
v 5.700 5.600 -3.320
v 5.700 8.400 -3.320
v 4.780 8.400 -3.320
f 281 282 283 284
f 285 288 287 286
f 281 285 286 282
f 284 283 287 288
f 281 284 288 285
f 282 286 287 283

o Partition_Wall_2_(F03)_wall_F03_int_wall_2
v -5.685 5.600 -3.460
v -4.775 5.600 -3.460
v -4.775 8.400 -3.460
v -5.685 8.400 -3.460
v -5.685 5.600 -3.320
v -4.775 5.600 -3.320
v -4.775 8.400 -3.320
v -5.685 8.400 -3.320
f 289 290 291 292
f 293 296 295 294
f 289 293 294 290
f 292 291 295 296
f 289 292 296 293
f 290 294 295 291

o Main_Living_&_Lounge_(32.55m²)_(F03)_room_F03_room_1
v -5.795 5.610 -1.935
v 5.795 5.610 -1.935
v 5.795 5.750 -1.935
v -5.795 5.750 -1.935
v -5.795 5.610 0.675
v 5.795 5.610 0.675
v 5.795 5.750 0.675
v -5.795 5.750 0.675
f 297 298 299 300
f 301 304 303 302
f 297 301 302 298
f 300 299 303 304
f 297 300 304 301
f 298 302 303 299

o Master_Bedroom_Suite_(North_Wing_•_11.55m²)_(F03)_room_F03_room_2
v 1.995 5.610 -3.175
v 5.805 5.610 -3.175
v 5.805 5.750 -3.175
v 1.995 5.750 -3.175
v 1.995 5.610 -0.425
v 5.805 5.610 -0.425
v 5.805 5.750 -0.425
v 1.995 5.750 -0.425
f 305 306 307 308
f 309 312 311 310
f 305 309 310 306
f 308 307 311 312
f 305 308 312 309
f 306 310 311 307

o Kitchen_&_Dining_(West_Wing_•_11.52m²)_(F03)_room_F03_room_3
v -5.790 5.610 -3.175
v -1.990 5.610 -3.175
v -1.990 5.750 -3.175
v -5.790 5.750 -3.175
v -5.790 5.610 -0.425
v -1.990 5.610 -0.425
v -1.990 5.750 -0.425
v -5.790 5.750 -0.425
f 313 314 315 316
f 317 320 319 318
f 313 317 318 314
f 316 315 319 320
f 313 316 320 317
f 314 318 319 315

o Bedroom_2_/_Guest_Room_(10.04m²)_(F03)_room_F03_room_4
v 1.995 5.610 0.615
v 5.805 5.610 0.615
v 5.805 5.750 0.615
v 1.995 5.750 0.615
v 1.995 5.610 2.985
v 5.805 5.610 2.985
v 5.805 5.750 2.985
v 1.995 5.750 2.985
f 321 322 323 324
f 325 328 327 326
f 321 325 326 322
f 324 323 327 328
f 321 324 328 325
f 322 326 327 323

o Private_Office_/_Studio_(10.02m²)_(F03)_room_F03_room_5
v -5.790 5.610 0.615
v -1.990 5.610 0.615
v -1.990 5.750 0.615
v -5.790 5.750 0.615
v -5.790 5.610 2.985
v -1.990 5.610 2.985
v -1.990 5.750 2.985
v -5.790 5.750 2.985
f 329 330 331 332
f 333 336 335 334
f 329 333 334 330
f 332 331 335 336
f 329 332 336 333
f 330 334 335 331

o Bathroom_&_Ensuite_(9.16m²)_(F03)_room_F03_room_6
v -1.675 5.610 0.845
v 1.675 5.610 0.845
v 1.675 5.750 0.845
v -1.675 5.750 0.845
v -1.675 5.610 3.295
v 1.675 5.610 3.295
v 1.675 5.750 3.295
v -1.675 5.750 3.295
f 337 338 339 340
f 341 344 343 342
f 337 341 342 338
f 340 339 343 344
f 337 340 344 341
f 338 342 343 339

o Utility_&_Laundry_(2.11m²)_(F03)_room_F03_room_7
v -1.675 5.610 3.490
v 1.675 5.610 3.490
v 1.675 5.750 3.490
v -1.675 5.750 3.490
v -1.675 5.610 3.930
v 1.675 5.610 3.930
v 1.675 5.750 3.930
v -1.675 5.750 3.930
f 345 346 347 348
f 349 352 351 350
f 345 349 350 346
f 348 347 351 352
f 345 348 352 349
f 346 350 351 347

o Rooftop_Terrace_T1_terrace_1
v -5.800 8.400 -3.750
v 5.800 8.400 -3.750
v 5.800 10.900 -3.750
v -5.800 10.900 -3.750
v -5.800 8.400 3.750
v 5.800 8.400 3.750
v 5.800 10.900 3.750
v -5.800 10.900 3.750
f 353 354 355 356
f 357 360 359 358
f 353 357 358 354
f 356 355 359 360
f 353 356 360 357
f 354 358 359 355
