# SVAMITVA 3D CADASTRE V-CAD EXPORT
# Parent 2D ULPIN: 12345678901234
# Total Spatial Geometries: 4

o Cadastral_Ground_Lawn_&_Landscape_landscape_base
v -12.000 -0.100 -9.000
v 12.000 -0.100 -9.000
v 12.000 0.000 -9.000
v -12.000 0.000 -9.000
v -12.000 -0.100 9.000
v 12.000 -0.100 9.000
v 12.000 0.000 9.000
v -12.000 0.000 9.000
f 1 2 3 4
f 5 8 7 6
f 1 5 6 2
f 4 3 7 8
f 1 4 8 5
f 2 6 7 3

o Ground_Floor_Slab_slab_F01
v -6.200 -0.080 -4.200
v 6.200 -0.080 -4.200
v 6.200 0.080 -4.200
v -6.200 0.080 -4.200
v -6.200 -0.080 4.200
v 6.200 -0.080 4.200
v 6.200 0.080 4.200
v -6.200 0.080 4.200
f 9 10 11 12
f 13 16 15 14
f 9 13 14 10
f 12 11 15 16
f 9 12 16 13
f 10 14 15 11

o Rooftop_Terrace_Slab_slab_R00
v -6.200 2.720 -4.200
v 6.200 2.720 -4.200
v 6.200 2.880 -4.200
v -6.200 2.880 -4.200
v -6.200 2.720 4.200
v 6.200 2.720 4.200
v 6.200 2.880 4.200
v -6.200 2.880 4.200
f 17 18 19 20
f 21 24 23 22
f 17 21 22 18
f 20 19 23 24
f 17 20 24 21
f 18 22 23 19

o Rooftop_Terrace_T1_terrace_1
v -5.800 2.800 -3.800
v 5.800 2.800 -3.800
v 5.800 5.300 -3.800
v -5.800 5.300 -3.800
v -5.800 2.800 3.800
v 5.800 2.800 3.800
v 5.800 5.300 3.800
v -5.800 5.300 3.800
f 25 26 27 28
f 29 32 31 30
f 25 29 30 26
f 28 27 31 32
f 25 28 32 29
f 26 30 31 27
