# SVAMITVA 3D CADASTRE V-CAD EXPORT
# Parent 2D ULPIN: 98765432109876
# Total Spatial Geometries: 24

o Land_Parcel_Base_landscape_base
v -17.000 -0.100 -19.000
v 17.000 -0.100 -19.000
v 17.000 0.000 -19.000
v -17.000 0.000 -19.000
v -17.000 -0.100 19.000
v 17.000 -0.100 19.000
v 17.000 0.000 19.000
v -17.000 0.000 19.000
f 1 2 3 4
f 5 8 7 6
f 1 5 6 2
f 4 3 7 8
f 1 4 8 5
f 2 6 7 3

o Basement_Slab_slab_B01
v -8.200 -3.110 -12.200
v 8.200 -3.110 -12.200
v 8.200 -2.890 -12.200
v -8.200 -2.890 -12.200
v -8.200 -3.110 12.200
v 8.200 -3.110 12.200
v 8.200 -2.890 12.200
v -8.200 -2.890 12.200
f 9 10 11 12
f 13 16 15 14
f 9 13 14 10
f 12 11 15 16
f 9 12 16 13
f 10 14 15 11

o Ground_Floor_Slab_slab_G00
v -8.200 -0.110 -12.200
v 8.200 -0.110 -12.200
v 8.200 0.110 -12.200
v -8.200 0.110 -12.200
v -8.200 -0.110 12.200
v 8.200 -0.110 12.200
v 8.200 0.110 12.200
v -8.200 0.110 12.200
f 17 18 19 20
f 21 24 23 22
f 17 21 22 18
f 20 19 23 24
f 17 20 24 21
f 18 22 23 19

o Floor_1_Slab_slab_F01
v -8.200 2.890 -12.200
v 8.200 2.890 -12.200
v 8.200 3.110 -12.200
v -8.200 3.110 -12.200
v -8.200 2.890 12.200
v 8.200 2.890 12.200
v 8.200 3.110 12.200
v -8.200 3.110 12.200
f 25 26 27 28
f 29 32 31 30
f 25 29 30 26
f 28 27 31 32
f 25 28 32 29
f 26 30 31 27

o Floor_2_Slab_slab_F02
v -8.200 5.890 -12.200
v 8.200 5.890 -12.200
v 8.200 6.110 -12.200
v -8.200 6.110 -12.200
v -8.200 5.890 12.200
v 8.200 5.890 12.200
v 8.200 6.110 12.200
v -8.200 6.110 12.200
f 33 34 35 36
f 37 40 39 38
f 33 37 38 34
f 36 35 39 40
f 33 36 40 37
f 34 38 39 35

o Floor_3_Slab_slab_F03
v -8.200 8.890 -12.200
v 8.200 8.890 -12.200
v 8.200 9.110 -12.200
v -8.200 9.110 -12.200
v -8.200 8.890 12.200
v 8.200 8.890 12.200
v 8.200 9.110 12.200
v -8.200 9.110 12.200
f 41 42 43 44
f 45 48 47 46
f 41 45 46 42
f 44 43 47 48
f 41 44 48 45
f 42 46 47 43

o Rooftop_Terrace_Slab_slab_R00
v -8.200 11.890 -12.200
v 8.200 11.890 -12.200
v 8.200 12.110 -12.200
v -8.200 12.110 -12.200
v -8.200 11.890 12.200
v 8.200 11.890 12.200
v 8.200 12.110 12.200
v -8.200 12.110 12.200
f 49 50 51 52
f 53 56 55 54
f 49 53 54 50
f 52 51 55 56
f 49 52 56 53
f 50 54 55 51

o Flat_101_flat_101
v -7.800 0.000 -11.700
v -0.400 0.000 -11.700
v -0.400 3.000 -11.700
v -7.800 3.000 -11.700
v -7.800 0.000 11.700
v -0.400 0.000 11.700
v -0.400 3.000 11.700
v -7.800 3.000 11.700
f 57 58 59 60
f 61 64 63 62
f 57 61 62 58
f 60 59 63 64
f 57 60 64 61
f 58 62 63 59

o Flat_102_flat_102
v 0.400 0.000 -11.700
v 7.800 0.000 -11.700
v 7.800 3.000 -11.700
v 0.400 3.000 -11.700
v 0.400 0.000 11.700
v 7.800 0.000 11.700
v 7.800 3.000 11.700
v 0.400 3.000 11.700
f 65 66 67 68
f 69 72 71 70
f 65 69 70 66
f 68 67 71 72
f 65 68 72 69
f 66 70 71 67

o Flat_201_flat_201
v -7.800 3.000 -11.700
v -0.400 3.000 -11.700
v -0.400 6.000 -11.700
v -7.800 6.000 -11.700
v -7.800 3.000 11.700
v -0.400 3.000 11.700
v -0.400 6.000 11.700
v -7.800 6.000 11.700
f 73 74 75 76
f 77 80 79 78
f 73 77 78 74
f 76 75 79 80
f 73 76 80 77
f 74 78 79 75

o Flat_202_flat_202
v 0.400 3.000 -11.700
v 7.800 3.000 -11.700
v 7.800 6.000 -11.700
v 0.400 6.000 -11.700
v 0.400 3.000 11.700
v 7.800 3.000 11.700
v 7.800 6.000 11.700
v 0.400 6.000 11.700
f 81 82 83 84
f 85 88 87 86
f 81 85 86 82
f 84 83 87 88
f 81 84 88 85
f 82 86 87 83

o Flat_301_flat_301
v -7.800 6.000 -11.700
v -0.400 6.000 -11.700
v -0.400 9.000 -11.700
v -7.800 9.000 -11.700
v -7.800 6.000 11.700
v -0.400 6.000 11.700
v -0.400 9.000 11.700
v -7.800 9.000 11.700
f 89 90 91 92
f 93 96 95 94
f 89 93 94 90
f 92 91 95 96
f 89 92 96 93
f 90 94 95 91

o Flat_302_flat_302
v 0.400 6.000 -11.700
v 7.800 6.000 -11.700
v 7.800 9.000 -11.700
v 0.400 9.000 -11.700
v 0.400 6.000 11.700
v 7.800 6.000 11.700
v 7.800 9.000 11.700
v 0.400 9.000 11.700
f 97 98 99 100
f 101 104 103 102
f 97 101 102 98
f 100 99 103 104
f 97 100 104 101
f 98 102 103 99

o Parking_P01_parking_p01
v -11.500 0.000 2.000
v -8.500 0.000 2.000
v -8.500 0.300 2.000
v -11.500 0.300 2.000
v -11.500 0.000 4.500
v -8.500 0.000 4.500
v -8.500 0.300 4.500
v -11.500 0.300 4.500
f 105 106 107 108
f 109 112 111 110
f 105 109 110 106
f 108 107 111 112
f 105 108 112 109
f 106 110 111 107

o Parking_P02_parking_p02
v 8.500 0.000 2.000
v 11.500 0.000 2.000
v 11.500 0.300 2.000
v 8.500 0.300 2.000
v 8.500 0.000 4.500
v 11.500 0.000 4.500
v 11.500 0.300 4.500
v 8.500 0.300 4.500
f 113 114 115 116
f 117 120 119 118
f 113 117 118 114
f 116 115 119 120
f 113 116 120 117
f 114 118 119 115

o Associated_Plot_17_plot_17
v -11.500 0.000 -5.000
v -8.500 0.000 -5.000
v -8.500 0.200 -5.000
v -11.500 0.200 -5.000
v -11.500 0.000 -1.500
v -8.500 0.000 -1.500
v -8.500 0.200 -1.500
v -11.500 0.200 -1.500
f 121 122 123 124
f 125 128 127 126
f 121 125 126 122
f 124 123 127 128
f 121 124 128 125
f 122 126 127 123

o Staircase_S1_stairs_s1
v -0.800 0.000 9.500
v 0.800 0.000 9.500
v 0.800 12.000 9.500
v -0.800 12.000 9.500
v -0.800 0.000 11.500
v 0.800 0.000 11.500
v 0.800 12.000 11.500
v -0.800 12.000 11.500
f 129 130 131 132
f 133 136 135 134
f 129 133 134 130
f 132 131 135 136
f 129 132 136 133
f 130 134 135 131

o Fire_Exit_F1_fire_f1
v -0.800 0.000 -11.500
v 0.800 0.000 -11.500
v 0.800 12.000 -11.500
v -0.800 12.000 -11.500
v -0.800 0.000 -9.500
v 0.800 0.000 -9.500
v 0.800 12.000 -9.500
v -0.800 12.000 -9.500
f 137 138 139 140
f 141 144 143 142
f 137 141 142 138
f 140 139 143 144
f 137 140 144 141
f 138 142 143 139

o Community_Park_park_1
v -14.000 0.000 -13.000
v -9.000 0.000 -13.000
v -9.000 0.200 -13.000
v -14.000 0.200 -13.000
v -14.000 0.000 13.000
v -9.000 0.000 13.000
v -9.000 0.200 13.000
v -14.000 0.200 13.000
f 145 146 147 148
f 149 152 151 150
f 145 149 150 146
f 148 147 151 152
f 145 148 152 149
f 146 150 151 147

o Community_Lawn_lawn_1
v 9.000 0.000 -13.000
v 14.000 0.000 -13.000
v 14.000 0.200 -13.000
v 9.000 0.200 -13.000
v 9.000 0.000 13.000
v 14.000 0.000 13.000
v 14.000 0.200 13.000
v 9.000 0.200 13.000
f 153 154 155 156
f 157 160 159 158
f 153 157 158 154
f 156 155 159 160
f 153 156 160 157
f 154 158 159 155

o Cellar_C1_cellar_1
v -7.500 -3.000 -11.500
v 7.500 -3.000 -11.500
v 7.500 0.000 -11.500
v -7.500 0.000 -11.500
v -7.500 -3.000 11.500
v 7.500 -3.000 11.500
v 7.500 0.000 11.500
v -7.500 0.000 11.500
f 161 162 163 164
f 165 168 167 166
f 161 165 166 162
f 164 163 167 168
f 161 164 168 165
f 162 166 167 163

o Terrace_T1_terrace_1
v -7.800 9.000 -11.800
v 7.800 9.000 -11.800
v 7.800 12.000 -11.800
v -7.800 12.000 -11.800
v -7.800 9.000 11.800
v 7.800 9.000 11.800
v 7.800 12.000 11.800
v -7.800 12.000 11.800
f 169 170 171 172
f 173 176 175 174
f 169 173 174 170
f 172 171 175 176
f 169 172 176 173
f 170 174 175 171

o Terrace_TR01_(Unit_401_Claim)_terrace_a
v -7.500 9.000 -3.000
v 0.500 9.000 -3.000
v 0.500 12.000 -3.000
v -7.500 12.000 -3.000
v -7.500 9.000 3.000
v 0.500 9.000 3.000
v 0.500 12.000 3.000
v -7.500 12.000 3.000
f 177 178 179 180
f 181 184 183 182
f 177 181 182 178
f 180 179 183 184
f 177 180 184 181
f 178 182 183 179

o Terrace_TR02_(Unit_402_Claim)_terrace_b
v -0.800 9.000 -3.000
v 7.500 9.000 -3.000
v 7.500 12.000 -3.000
v -0.800 12.000 -3.000
v -0.800 9.000 3.000
v 7.500 9.000 3.000
v 7.500 12.000 3.000
v -0.800 12.000 3.000
f 185 186 187 188
f 189 192 191 190
f 185 189 190 186
f 188 187 191 192
f 185 188 192 189
f 186 190 191 187
